<mxfile host="app.diagrams.net" modified="2024-08-07T12:31:32.074Z" agent="Mozilla/5.0 (Windows NT 10.0; Win64; x64) AppleWebKit/537.36 (KHTML, like Gecko) Chrome/127.0.0.0 Safari/537.36 Edg/127.0.0.0" etag="CuPEjKIEKZL7FOl7_WDl" version="24.4.6" type="device">
  <diagram name="PÃ¡gina-1" id="M6TqpbGgjHcjmQGdjUbo">
    <mxGraphModel dx="660" dy="373" grid="1" gridSize="10" guides="1" tooltips="1" connect="1" arrows="1" fold="1" page="1" pageScale="1" pageWidth="827" pageHeight="1169" math="0" shadow="0">
      <root>
        <mxCell id="0" />
        <mxCell id="1" parent="0" />
        <mxCell id="zPkCzIR9gH3HpekOuYAI-1" value="" style="rounded=1;whiteSpace=wrap;html=1;" vertex="1" parent="1">
          <mxGeometry x="190" y="190" width="270" height="260" as="geometry" />
        </mxCell>
        <mxCell id="zPkCzIR9gH3HpekOuYAI-2" value="" style="shape=image;verticalLabelPosition=bottom;labelBackgroundColor=default;verticalAlign=top;aspect=fixed;imageAspect=0;image=https://www.thecrazyprogrammer.com/wp-content/uploads/2021/06/Components-of-CPU-and-Their-Functions-in-Computer.png;direction=north;shadow=1;" vertex="1" parent="1">
          <mxGeometry x="220" y="210" width="93.1" height="80" as="geometry" />
        </mxCell>
        <mxCell id="zPkCzIR9gH3HpekOuYAI-4" value="" style="shape=image;verticalLabelPosition=bottom;labelBackgroundColor=default;verticalAlign=top;aspect=fixed;imageAspect=0;image=https://www.thecrazyprogrammer.com/wp-content/uploads/2021/06/Components-of-CPU-and-Their-Functions-in-Computer.png;direction=north;shadow=1;" vertex="1" parent="1">
          <mxGeometry x="340" y="210" width="93.1" height="80" as="geometry" />
        </mxCell>
        <mxCell id="zPkCzIR9gH3HpekOuYAI-5" value="" style="shape=image;verticalLabelPosition=bottom;labelBackgroundColor=default;verticalAlign=top;aspect=fixed;imageAspect=0;image=https://www.thecrazyprogrammer.com/wp-content/uploads/2021/06/Components-of-CPU-and-Their-Functions-in-Computer.png;direction=north;shadow=1;" vertex="1" parent="1">
          <mxGeometry x="220" y="340" width="93.1" height="80" as="geometry" />
        </mxCell>
        <mxCell id="zPkCzIR9gH3HpekOuYAI-6" value="" style="shape=image;verticalLabelPosition=bottom;labelBackgroundColor=default;verticalAlign=top;aspect=fixed;imageAspect=0;image=https://www.thecrazyprogrammer.com/wp-content/uploads/2021/06/Components-of-CPU-and-Their-Functions-in-Computer.png;direction=north;shadow=1;" vertex="1" parent="1">
          <mxGeometry x="340" y="340" width="93.1" height="80" as="geometry" />
        </mxCell>
        <mxCell id="zPkCzIR9gH3HpekOuYAI-7" style="edgeStyle=orthogonalEdgeStyle;rounded=0;orthogonalLoop=1;jettySize=auto;html=1;exitX=0.5;exitY=1;exitDx=0;exitDy=0;" edge="1" parent="1" source="zPkCzIR9gH3HpekOuYAI-1" target="zPkCzIR9gH3HpekOuYAI-1">
          <mxGeometry relative="1" as="geometry" />
        </mxCell>
        <mxCell id="zPkCzIR9gH3HpekOuYAI-8" value="CPU or processor" style="text;html=1;align=center;verticalAlign=middle;whiteSpace=wrap;rounded=0;" vertex="1" parent="1">
          <mxGeometry x="480" y="150" width="106.9" height="30" as="geometry" />
        </mxCell>
        <mxCell id="zPkCzIR9gH3HpekOuYAI-9" style="edgeStyle=orthogonalEdgeStyle;rounded=0;orthogonalLoop=1;jettySize=auto;html=1;entryX=0.515;entryY=-0.006;entryDx=0;entryDy=0;entryPerimeter=0;" edge="1" parent="1" source="zPkCzIR9gH3HpekOuYAI-8" target="zPkCzIR9gH3HpekOuYAI-1">
          <mxGeometry relative="1" as="geometry" />
        </mxCell>
        <mxCell id="zPkCzIR9gH3HpekOuYAI-12" style="edgeStyle=orthogonalEdgeStyle;rounded=0;orthogonalLoop=1;jettySize=auto;html=1;entryX=0.5;entryY=1;entryDx=0;entryDy=0;" edge="1" parent="1" source="zPkCzIR9gH3HpekOuYAI-10" target="zPkCzIR9gH3HpekOuYAI-4">
          <mxGeometry relative="1" as="geometry" />
        </mxCell>
        <mxCell id="zPkCzIR9gH3HpekOuYAI-10" value="Core" style="text;html=1;align=center;verticalAlign=middle;whiteSpace=wrap;rounded=0;" vertex="1" parent="1">
          <mxGeometry x="490" y="235" width="40" height="30" as="geometry" />
        </mxCell>
      </root>
    </mxGraphModel>
  </diagram>
</mxfile>
